<svg id="Layer_1" data-name="Layer 1" xmlns="http://www.w3.org/2000/svg" xmlns:xlink="http://www.w3.org/1999/xlink" viewBox="0 0 100.69 71.61" width="100.69" height="71.61"><defs><style>.cls-1{fill:#231f20;}.cls-2{fill:#414042;}.cls-3{fill:url(#linear-gradient);}</style><linearGradient id="linear-gradient" x1="20.87" y1="61.06" x2="49.18" y2="12.03" gradientUnits="userSpaceOnUse"><stop offset="0.18" stop-color="#fad506"/><stop offset="0.41" stop-color="#21409a"/><stop offset="0.56" stop-color="#21409a"/><stop offset="0.82" stop-color="#029280"/></linearGradient></defs><title>m3-logo-horizontal</title><path class="cls-1" d="M9.66,49.49h0Z" transform="translate(-2.67 -1.4)"/><path class="cls-2" d="M75.29,34a1.53,1.53,0,0,1,1.54-1.54h.32a1.59,1.59,0,0,1,1.41.82l5.27,8.24,5.28-8.27a1.54,1.54,0,0,1,1.39-.79h.33A1.53,1.53,0,0,1,92.37,34V48.56a1.51,1.51,0,0,1-1.54,1.52,1.55,1.55,0,0,1-1.52-1.52V38.14l-4.24,6.38a1.48,1.48,0,0,1-1.29.79,1.47,1.47,0,0,1-1.27-.79l-4.22-6.33v10.4a1.49,1.49,0,0,1-1.51,1.49,1.46,1.46,0,0,1-1.49-1.49Z" transform="translate(-2.67 -1.4)"/><path class="cls-2" d="M96.36,39.71a1.05,1.05,0,0,1,.69-1.86,1.07,1.07,0,0,1,.71.27,2.87,2.87,0,0,0,2,.76,1.27,1.27,0,0,0,1.43-1.23v0c0-.83-.73-1.29-2-1.29h-.34a1,1,0,0,1-1-.95,1.26,1.26,0,0,1,.48-.92l2-2H97.23a1,1,0,1,1,0-1.91h4.93a1,1,0,0,1,1.13,1,1.6,1.6,0,0,1-.67,1.24l-2,1.9c1.37.23,2.72.95,2.72,2.83v0c0,1.91-1.39,3.31-3.65,3.31A4.93,4.93,0,0,1,96.36,39.71Z" transform="translate(-2.67 -1.4)"/><path class="cls-3" d="M35.9,73a6.78,6.78,0,0,1-6.77-6.77V46.3l-7.95,5.13a4.2,4.2,0,0,1-5.94-1.49L7.38,35.8V54.54a2.36,2.36,0,1,1-4.71,0v-25A3.09,3.09,0,0,1,8.46,28L19.1,47.17l10-6.44a3.09,3.09,0,0,1,4.77,2.6v22.9A2.05,2.05,0,0,0,36.93,68L60.37,54.47l-9.13-2.19a4.2,4.2,0,0,1-2.43-6.53l9.57-13.34L46.7,39.16a9.75,9.75,0,0,1-9.68,0L4.92,20.83a3.1,3.1,0,0,1,1.83-5.77l23.4,2.26L26.73,5.85a3.46,3.46,0,0,1,5-4L59.1,17.56a2.36,2.36,0,1,1-2.35,4.09L32.15,7.51l2.74,9.2a4.19,4.19,0,0,1-4.42,5.37l-16.65-1.6L39.36,35.09a5,5,0,0,0,5,0L62.53,24.56A3.09,3.09,0,0,1,66.59,29L53.09,47.87l11.44,2.76A3.46,3.46,0,0,1,65.45,57L39.28,72.09A6.75,6.75,0,0,1,35.9,73Z" transform="translate(-2.67 -1.4)"/></svg>