<svg id="Layer_1" data-name="Layer 1" xmlns="http://www.w3.org/2000/svg" xmlns:xlink="http://www.w3.org/1999/xlink" viewBox="0 0 140.61 100" width="140.61" height="100"><defs><style>.cls-1{fill:#231f20;}.cls-2{fill:#414042;}.cls-3{fill:url(#linear-gradient);}</style><linearGradient id="linear-gradient" x1="28.11" y1="85.82" x2="67.65" y2="17.35" gradientUnits="userSpaceOnUse"><stop offset="0.18" stop-color="#fad506"/><stop offset="0.41" stop-color="#21409a"/><stop offset="0.56" stop-color="#21409a"/><stop offset="0.82" stop-color="#029280"/></linearGradient></defs><title>M3_Logo</title><path class="cls-1" d="M12.45,69.66Z" transform="translate(-2.69 -2.5)"/><path class="cls-2" d="M104.11,48.06a2.13,2.13,0,0,1,2.15-2.15h.45a2.25,2.25,0,0,1,2,1.14L116,58.56,123.41,47a2.15,2.15,0,0,1,2-1.11h.45A2.13,2.13,0,0,1,128,48.06V68.37a2.11,2.11,0,0,1-2.14,2.12,2.15,2.15,0,0,1-2.12-2.12V53.81l-5.93,8.91a2,2,0,0,1-3.57,0l-5.89-8.84V68.41a2.08,2.08,0,0,1-2.11,2.08,2,2,0,0,1-2.08-2.08Z" transform="translate(-2.69 -2.5)"/><path class="cls-2" d="M133.53,56A1.52,1.52,0,0,1,133,54.9a1.51,1.51,0,0,1,1.49-1.49,1.49,1.49,0,0,1,1,.38,4,4,0,0,0,2.77,1.05,1.78,1.78,0,0,0,2-1.72v0c0-1.15-1-1.79-2.77-1.79H137A1.35,1.35,0,0,1,135.67,50a1.74,1.74,0,0,1,.67-1.27l2.75-2.77h-4.35a1.33,1.33,0,0,1,0-2.66h6.89a1.41,1.41,0,0,1,1.58,1.37,2.28,2.28,0,0,1-.93,1.74L139.51,49c1.92.33,3.8,1.34,3.8,4v0c0,2.67-1.94,4.63-5.09,4.63A6.92,6.92,0,0,1,133.53,56Z" transform="translate(-2.69 -2.5)"/><path class="cls-3" d="M49.1,102.5A9.49,9.49,0,0,1,39.65,93V65.21l-11.1,7.16a5.86,5.86,0,0,1-8.3-2.08l-11-19.75V76.71a3.3,3.3,0,1,1-6.59,0V41.8a4.32,4.32,0,0,1,8.1-2.1L25.63,66.42l14-9a4.32,4.32,0,0,1,6.66,3.63V93a2.87,2.87,0,0,0,4.3,2.49l32.73-18.9L70.52,73.55a5.85,5.85,0,0,1-3.39-9.1L80.49,45.81,64.18,55.23a13.62,13.62,0,0,1-13.52,0L5.84,29.64a4.32,4.32,0,0,1,2.56-8l32.67,3.14-4.77-16a4.83,4.83,0,0,1,7-5.57L81.5,25.07a3.29,3.29,0,1,1-3.27,5.71L43.87,11l3.82,12.85a5.86,5.86,0,0,1-6.18,7.5L18.26,29.15l35.67,20.4a7,7,0,0,0,7,0L86.29,34.85A4.32,4.32,0,0,1,92,41.11L73.11,67.41l16,3.84a4.83,4.83,0,0,1,1.28,8.88L53.83,101.22A9.5,9.5,0,0,1,49.1,102.5Z" transform="translate(-2.69 -2.5)"/></svg>